<svg xmlns="http://www.w3.org/2000/svg" xml:space="preserve" width="1024" height="1024" viewBox="0 0 270.933 270.933"><path d="M238.881 750.887c-1.324-3.45 10.35-39.707 18.307-56.862 6.139-13.232 19.56-34.709 29.609-47.376 7.7-9.709 30.73-32.729 40.593-40.579 31.074-24.728 70.706-44.351 109.248-54.09 24.62-6.222 42.713-8.548 70.556-9.074 48.78-.92 89.581 6.333 129.202 22.967 58.989 24.765 110.003 71.92 135.765 125.492 9.111 18.948 18.77 47.275 18.99 55.693l.101 3.89-11.313.434c-6.223.239-130.41.478-275.97.53-241.02.087-264.696-.004-265.088-1.025zm162.756-56.984c9.453-2.043 17.716-8.556 22.095-17.416 2.603-5.268 2.653-5.523 2.653-13.538 0-7.859-.091-8.355-2.415-13.118-3.19-6.538-9.39-12.741-15.955-15.963-4.851-2.38-5.09-2.422-14.142-2.422h-9.207l-5.22 2.788c-9.186 4.908-15.015 12.283-16.965 21.466-3.11 14.649 3.737 29.611 16.407 35.85 7.531 3.709 13.58 4.334 22.749 2.353zm248.808-2.195c12.3-5.841 18.832-16.164 18.832-29.763 0-17.044-14.672-30.852-32.784-30.852-11.24 0-20.752 4.782-26.722 13.435-4.215 6.107-5.195 9.71-5.195 19.092 0 7.506.155 8.447 2.013 12.231 2.45 4.987 8.711 11.905 13.11 14.483 6.251 3.663 9.65 4.463 17.83 4.194 6.899-.227 7.929-.451 12.916-2.82z" style="fill:#000;fill-opacity:1;stroke:#000;stroke-width:7.55905522;stroke-dasharray:none;stroke-opacity:1;paint-order:stroke fill markers" transform="scale(.26458)"/><path d="M61.78 117.51c-1.618-.737-2.79-1.861-3.475-3.331-.968-2.08-.805-4.537.697-10.462 5.156-20.347 20.285-38.468 40.296-48.268 1.412-.69 2.567-1.38 2.567-1.533 0-.241-2.131-3.603-4.207-6.636a55 55 0 0 1-1.085-1.646 74 74 0 0 0-1.353-2.037 642 642 0 0 1-4.09-6.158l-3.133-4.763-.012-1.766c-.009-1.388.107-1.925.542-2.513 1.277-1.725 3.34-2.508 5.165-1.961.99.297 2.88 1.699 2.88 2.136 0 .114.843 1.442 1.873 2.95s2.31 3.433 2.845 4.279c1.33 2.103 8.92 13.695 9.353 14.284.333.453.474.439 2.996-.31 7.886-2.339 14.575-3.376 23.547-3.65 9.739-.298 19.586.893 27.972 3.383 3.663 1.087 3.656 1.088 5.043-1.023 1.528-2.327 6.332-9.77 6.673-10.34.145-.243.329-.501.407-.574.18-.167 2.055-3.051 4.214-6.482 2.057-3.271 2.702-3.975 4.153-4.529 3.016-1.152 5.91.86 5.91 4.109 0 1.823-.146 2.108-4.443 8.622a1436 1436 0 0 0-5.03 7.673c-.941 1.455-2.291 3.526-2.999 4.603-.707 1.076-1.286 2.1-1.286 2.275s1.399 1.034 3.109 1.909c5.189 2.654 12.028 7.162 15.941 10.507 1.938 1.656 8.942 8.831 10.068 10.313 6.517 8.58 10.061 15.23 12.772 23.97 2.129 6.861 2.719 11.662 1.68 13.67-.694 1.343-2.121 2.622-3.587 3.216l-1.424.577-76.76-.006c-73.712-.006-76.802-.025-77.819-.488zm151.188-8.203c.262-.422-.175-2.475-1.329-6.252-1.887-6.179-4.892-12.55-8.11-17.198-6.184-8.932-13.938-16.049-23.522-21.589-9.82-5.676-20.18-8.847-32.37-9.906-18.174-1.58-34.812 2.028-49.137 10.657-6.221 3.748-9.75 6.494-14.501 11.285-5.045 5.086-7.873 8.97-11.745 16.126-1.925 3.558-4.369 10.297-5.55 15.306-.385 1.63-.375 1.741.17 1.884.254.067 33.18.106 73.166.086 61.25-.03 72.74-.093 72.928-.399m-107.36-15.135c-3.662-.72-6.392-4.25-6.387-8.256.005-3.261 1.7-5.973 4.679-7.482 1.342-.68 1.82-.779 3.785-.779 1.915 0 2.468.108 3.722.724 1.886.926 3.197 2.246 4.103 4.13.594 1.234.72 1.854.716 3.54-.003 1.717-.125 2.282-.758 3.534-1.243 2.456-3.438 4.086-6.212 4.612-1.567.297-2.034.294-3.648-.023m64.498.03c-2.542-.457-4.97-2.426-6.153-4.99-.851-1.848-.762-4.987.196-6.877 1.793-3.539 5.33-5.303 9.275-4.627 3.071.526 6.006 3.118 6.783 5.99.495 1.83.178 4.672-.686 6.166-1.926 3.326-5.606 5.021-9.415 4.337M140.08 45.776q-204.96-202.809 0 0m-29.22-31.382c-2.08-.901-3.105-2.649-2.789-4.756.23-1.533.942-2.332 4.09-4.596 4.57-3.286 11.613-6.249 17.634-7.42 10.335-2.01 20.442-.96 30.013 3.115 3.557 1.514 8.139 4.296 10.22 6.204 2.004 1.84 2.114 4.59.258 6.446-1.783 1.783-4.322 1.731-6.742-.136-3.537-2.73-6.632-4.372-10.772-5.713-12.53-4.062-25.782-2.166-35.958 5.144-3.006 2.16-4.157 2.49-5.954 1.712M93.567.938c-2.313-.831-3.36-2.703-2.833-5.062.367-1.64.755-2.062 4.568-4.958 4.04-3.07 6.72-4.712 11.724-7.186C120.32-22.84 136.353-25.283 151.21-23c5.204.8 13.219 3.067 18.035 5.1 5.17 2.184 11.78 6.165 16.361 9.854 2.742 2.208 3.307 3.015 3.307 4.722 0 2.69-1.61 4.382-4.17 4.382-1.816 0-2.726-.423-4.825-2.245-2.3-1.997-7.197-5.228-10.451-6.898-5.667-2.907-13.067-5.295-19.712-6.36-3.503-.563-13.433-.791-16.933-.39-8.41.963-16.204 3.327-23.242 7.048-3.21 1.698-8.925 5.455-10.625 6.985-2.013 1.813-3.684 2.353-5.387 1.74M76.2-13.33c-1.805-1.033-2.658-3.877-1.722-5.743.528-1.052 1.371-1.84 5.162-4.822C91.32-33.083 104.596-39.136 120-42.297c5.942-1.22 9.911-1.644 16.92-1.81 10.3-.242 17.756.54 27.219 2.854 6.924 1.694 14.924 4.597 19.613 7.117.728.392 2.335 1.232 3.572 1.867s2.547 1.357 2.91 1.605a715 715 0 0 0 3.934 2.61c1.8 1.187 3.985 2.717 4.857 3.399 6.28 4.91 7.395 6.654 6.022 9.424-.763 1.54-1.663 2.097-3.586 2.22-1.94.123-2.55-.148-4.752-2.111-7.513-6.703-18.522-12.788-29.493-16.303-23.224-7.44-49.314-4.963-70.34 6.677-5.027 2.784-9.398 5.708-12.475 8.348-3.628 3.112-3.839 3.234-5.773 3.346-1.212.07-1.975-.016-2.429-.276" style="fill:#0f0;fill-opacity:1;stroke:none;stroke-width:.1;stroke-dasharray:none;stroke-opacity:1;paint-order:stroke fill markers" transform="translate(-3.44 89.43)"/><text xml:space="preserve" x="97.618" y="11.468" style="font-size:17.6389px;font-family:Lateinaus;-inkscape-font-specification:Lateinaus;writing-mode:lr-tb;direction:ltr;fill:#000;stroke:#fff;stroke-width:.264999;stroke-opacity:1" transform="rotate(-13.779 365.853 59.186)"><tspan x="97.618" y="11.468" style="font-style:normal;font-variant:normal;font-weight:700;font-stretch:normal;font-size:17.6389px;font-family:FreeMono;-inkscape-font-specification:&quot;FreeMono Bold&quot;;stroke:#fff;stroke-width:.265;stroke-opacity:1">shell</tspan></text><text xml:space="preserve" x="117.688" y="-88.196" style="font-style:normal;font-variant:normal;font-weight:400;font-stretch:normal;font-size:14.1111px;font-family:FreeMono;-inkscape-font-specification:FreeMono;writing-mode:lr-tb;direction:ltr;fill:#000;stroke:#fff;stroke-width:.264999;stroke-opacity:1" transform="rotate(23.072 -219.412 35.68)"><tspan x="117.688" y="-88.196" style="font-style:normal;font-variant:normal;font-weight:700;font-stretch:normal;font-family:FreeMono;-inkscape-font-specification:&quot;FreeMono Bold&quot;;stroke:#fff;stroke-width:.265;stroke-opacity:1">install</tspan></text><text xml:space="preserve" x="93.262" y="1.649" style="font-style:normal;font-variant:normal;font-weight:700;font-stretch:normal;font-size:21.1667px;font-family:FreeMono;-inkscape-font-specification:&quot;FreeMono Bold&quot;;writing-mode:lr-tb;direction:ltr;fill:#000;stroke:#fff;stroke-width:.264999;stroke-opacity:1" transform="rotate(-19.396 258.134 54.86)"><tspan x="93.262" y="1.649" style="font-size:21.1667px;stroke-width:.265">adb</tspan></text><text xml:space="preserve" x="125.524" y="-57.834" style="font-style:normal;font-variant:normal;font-weight:700;font-stretch:normal;font-size:19.4028px;font-family:FreeMono;-inkscape-font-specification:&quot;FreeMono Bold&quot;;writing-mode:lr-tb;direction:ltr;fill:#000;stroke:#fff;stroke-width:.264999;stroke-opacity:1" transform="rotate(19.772 -256.66 34.183)"><tspan x="125.524" y="-57.834" style="font-size:19.4028px;stroke-width:.265">echo</tspan></text><text xml:space="preserve" x="90.1" y="56.598" style="font-style:normal;font-variant:normal;font-weight:700;font-stretch:normal;font-size:21.1667px;font-family:FreeMono;-inkscape-font-specification:&quot;FreeMono Bold&quot;;writing-mode:lr-tb;direction:ltr;fill:#000;stroke:#fff;stroke-width:.264999;stroke-opacity:1" transform="rotate(-24.9 199.415 52.501)"><tspan x="90.1" y="56.598" style="font-size:21.1667px;stroke-width:.265">uwu</tspan></text><text xml:space="preserve" x="108.949" y="26.99" style="font-style:normal;font-variant:normal;font-weight:700;font-stretch:normal;font-size:17.6389px;font-family:FreeMono;-inkscape-font-specification:&quot;FreeMono Bold&quot;;writing-mode:lr-tb;direction:ltr;fill:#000;stroke:#fff;stroke-width:.264999;stroke-opacity:1" transform="translate(-3.568 88.84)"><tspan x="108.949" y="26.99" style="font-size:17.6389px;stroke-width:.265">reboot</tspan></text><g style="display:inline"><path d="M121.835 102.527c9.63-5.286 28.96-14.502 32.682-15.581 3.433-.996 2.992-.427-1.494 1.926-15.791 8.282-28.4 14.212-30.22 14.212-1.09 0-1.526-.25-.968-.557zM153.3 98.7c13.995-7.43 24.625-11.172 12.243-4.31-5.994 3.322-13.12 6.67-15.834 7.438-2.714.769-1.098-.64 3.591-3.128m-41.473-2.87c5.994-3.322 13.119-6.67 15.833-7.438 5.854-1.658-8.938 6.388-19.424 10.566-4.707 1.876-3.43.762 3.59-3.128m71.865-.688c5.328-2.713 10.192-4.632 10.81-4.265 1.461.87-14.879 9.188-18.06 9.194-1.34.002 1.923-2.215 7.25-4.929m-95.039-.02c3.967-1.93 7.685-3.227 8.262-2.884 1.403.835-9.944 6.401-13.038 6.396-1.34-.002.81-1.582 4.776-3.512" style="display:inline;fill:#f05;fill-opacity:1;stroke:none;stroke-width:.500023;stroke-dasharray:none;stroke-opacity:1" transform="translate(-3.568 88.84)"/></g><path d="M105.092 89.166c-.194-.084-.289-.246-.26-.442.022-.143.088-.217.38-.428.426-.305 1.08-.581 1.64-.69a4.7 4.7 0 0 1 2.792.29c.33.14.757.4.95.577.187.17.197.427.024.6-.165.165-.402.16-.627-.013a3.1 3.1 0 0 0-1.001-.532c-1.166-.377-2.398-.201-3.345.479-.28.2-.386.231-.553.159m-1.609-1.252c-.215-.077-.312-.251-.263-.47.034-.153.07-.192.425-.461a5.8 5.8 0 0 1 1.09-.669 7.05 7.05 0 0 1 4.11-.626c.483.075 1.229.285 1.677.475.48.203 1.095.573 1.521.916.255.205.308.28.308.439 0 .25-.15.408-.388.408-.169 0-.254-.04-.449-.21a6 6 0 0 0-.972-.64 6.5 6.5 0 0 0-1.833-.592c-.326-.053-1.25-.074-1.575-.037-.782.09-1.507.31-2.161.656-.299.158-.83.507-.988.65-.188.168-.343.218-.502.161m-1.615-1.327a.44.44 0 0 1-.16-.534c.05-.097.128-.17.48-.448 1.087-.855 2.321-1.418 3.754-1.712a7.7 7.7 0 0 1 1.574-.168c.957-.022 1.65.05 2.53.266.645.157 1.389.427 1.825.662l.332.173c.115.06.237.126.27.15l.367.242c.167.11.37.253.451.316.584.457.688.62.56.877-.07.143-.154.195-.333.206-.18.012-.237-.014-.442-.196-.699-.624-1.723-1.19-2.743-1.516-2.16-.692-4.586-.462-6.542.62-.467.26-.874.531-1.16.777-.337.29-.357.3-.537.311-.112.007-.183-.001-.226-.026M169.33 89.322c-.193-.084-.288-.247-.259-.443.022-.142.088-.216.38-.427.426-.306 1.08-.581 1.64-.69a4.7 4.7 0 0 1 2.792.29c.33.14.757.4.95.577.187.17.197.426.024.6-.165.165-.402.16-.627-.013a3.1 3.1 0 0 0-1.001-.532c-1.166-.378-2.398-.201-3.345.479-.28.2-.386.231-.553.159m-1.608-1.252c-.215-.077-.312-.251-.263-.47.034-.153.07-.192.425-.462a5.8 5.8 0 0 1 1.09-.668 7.05 7.05 0 0 1 4.11-.626c.483.074 1.229.285 1.677.474.48.203 1.095.574 1.521.917.255.205.308.28.308.439 0 .25-.15.407-.388.407-.169 0-.254-.039-.449-.208a6 6 0 0 0-.972-.642 6.5 6.5 0 0 0-1.833-.591c-.326-.053-1.25-.074-1.575-.037-.782.09-1.507.31-2.161.656-.299.158-.83.507-.988.65-.188.168-.343.218-.502.161m-1.615-1.327a.44.44 0 0 1-.16-.534c.05-.098.128-.17.48-.448 1.087-.855 2.321-1.418 3.754-1.712a7.7 7.7 0 0 1 1.574-.168c.957-.022 1.65.05 2.53.265.645.158 1.389.428 1.825.662.068.037.217.115.332.174.115.06.237.126.27.15l.367.242c.167.11.37.253.451.316.584.457.688.619.56.877-.07.143-.154.195-.333.206s-.237-.014-.442-.196c-.699-.624-1.723-1.19-2.743-1.517-2.16-.691-4.586-.461-6.542.621-.467.26-.874.531-1.16.777-.337.29-.357.3-.537.311-.112.007-.183-.002-.226-.026" style="display:inline;fill:green;fill-opacity:1;stroke:none;stroke-width:.00930011;stroke-dasharray:none;stroke-opacity:1;paint-order:stroke fill markers" transform="translate(-3.568 88.84)"/></svg>